<?xml version="1.0" encoding="UTF-8"?>
<svg id="Layer_1" data-name="Layer 1" xmlns="http://www.w3.org/2000/svg" xmlns:xlink="http://www.w3.org/1999/xlink" viewBox="0 0 790.92 439.92">
  <defs>
    <style>
      .cls-1 {
        fill: none;
      }

      .cls-2 {
        fill: #c62c27;
      }

      .cls-3 {
        clip-path: url(#clippath);
      }
    </style>
    <clipPath id="clippath">
      <rect class="cls-1" x="0" width="790.92" height="439.92"/>
    </clipPath>
  </defs>
  <g class="cls-3">
    <path class="cls-2" d="M376.68,219.96l18.78-54.9,18.79,54.9-18.79,54.9-18.78-54.9ZM474.83,219.96c29.38-52.77,77.81-93.96,135.54-113.72l180.54-61.78L657.75,0l-65.88,22.54c-60.41,20.67-111.86,68.96-145.67,125.76L395.46,0l-50.75,148.31c-33.8-56.81-85.25-105.11-145.66-125.77L133.17,0,0,44.46l180.55,61.78c57.73,19.75,106.17,60.94,135.54,113.72-29.38,52.77-77.81,93.96-135.54,113.72L0,395.46l133.17,44.46,65.88-22.54c60.4-20.67,111.86-68.96,145.66-125.77l50.75,148.31,50.75-148.31c33.81,56.81,85.26,105.1,145.67,125.76l65.88,22.54,133.16-44.46-180.54-61.78c-57.73-19.75-106.17-60.94-135.54-113.72"/>
  </g>
</svg>